<svg width="200" height="78" viewBox="0 0 200 78" fill="none" xmlns="http://www.w3.org/2000/svg">
<path d="M116.027 26.6647C118.651 29.176 119.921 32.4209 119.921 36.3995C119.921 40.3498 118.594 43.623 115.97 46.1625C113.346 48.7302 109.763 49.9717 105.135 49.9717H97.5166V22.8555H105.163C109.847 22.8837 113.431 24.1252 116.027 26.6647ZM99.6893 24.8307V48.0812H105.192C109.085 48.0812 112.189 46.9808 114.39 44.7516C116.591 42.5507 117.72 39.7855 117.72 36.3713C117.72 32.9853 116.619 30.1918 114.39 28.0474C112.189 25.9029 109.114 24.8025 105.192 24.8025L99.6893 24.8307Z" fill="#808083"/>
<path d="M125.169 21.2471C125.508 21.614 125.705 22.009 125.705 22.5169C125.705 23.0248 125.536 23.448 125.169 23.7866C124.831 24.1535 124.407 24.3228 123.871 24.3228C123.335 24.3228 122.912 24.1535 122.573 23.7866C122.235 23.4198 122.037 23.0248 122.037 22.5169C122.037 22.009 122.206 21.5857 122.573 21.2471C122.912 20.8803 123.335 20.711 123.871 20.711C124.407 20.711 124.831 20.8803 125.169 21.2471ZM124.887 49.9999H122.827V30.1636H124.887V49.9999Z" fill="#808083"/>
<path d="M148.109 30.1636V48.2223C148.109 51.1568 147.206 53.4988 145.457 55.22C143.708 56.9412 141.45 57.7877 138.6 57.7877C136.738 57.7877 135.017 57.4209 133.437 56.7155C131.828 56.0101 130.559 55.0789 129.486 53.9221L130.756 52.5394C132.957 54.7403 135.581 55.869 138.572 55.869C140.829 55.869 142.635 55.22 143.99 53.8938C145.372 52.5677 146.05 50.7336 146.05 48.3069V45.7392C145.288 47.0372 144.187 48.053 142.72 48.8148C141.281 49.6049 139.729 49.9435 137.98 49.9435C135.186 49.9435 132.844 48.9559 130.982 47.009C129.12 45.0902 128.16 42.6636 128.16 39.8137C128.16 36.9921 129.12 34.6219 130.982 32.6467C132.844 30.6715 135.186 29.7122 137.98 29.7122C139.701 29.7122 141.309 30.1072 142.776 30.8973C144.272 31.6873 145.344 32.7596 146.106 34.0857V30.1354L148.109 30.1636ZM143.764 45.9085C145.259 44.5259 146.05 42.4943 146.05 39.8137C146.05 37.1896 145.288 35.158 143.736 33.7754C142.184 32.3927 140.378 31.7155 138.262 31.7155C135.948 31.7155 134.057 32.4774 132.534 34.0575C131.038 35.6094 130.276 37.5564 130.276 39.8984C130.276 42.2404 131.01 44.1591 132.534 45.711C134.057 47.2629 135.948 48.0248 138.262 48.0248C140.434 47.9966 142.268 47.2911 143.764 45.9085Z" fill="#808083"/>
<path d="M154.994 21.2471C155.333 21.614 155.53 22.009 155.53 22.5169C155.53 23.0248 155.361 23.448 154.994 23.7866C154.656 24.1535 154.233 24.3228 153.696 24.3228C153.16 24.3228 152.737 24.1535 152.398 23.7866C152.06 23.4198 151.862 23.0248 151.862 22.5169C151.862 22.009 152.032 21.5857 152.398 21.2471C152.737 20.8803 153.16 20.711 153.696 20.711C154.233 20.711 154.656 20.8803 154.994 21.2471ZM154.712 49.9999H152.652V30.1636H154.712V49.9999Z" fill="#808083"/>
<path d="M169.215 48.1659V49.9717C168.171 50.2539 167.156 50.3668 166.14 50.3668C164.278 50.3668 162.782 49.8871 161.71 48.9277C160.609 47.9683 160.073 46.4729 160.073 44.413V31.9977H156.631V30.1354H160.073V24.5203H162.161V30.1354H168.567V31.9977H162.161V44.3284C162.161 47.0936 163.6 48.4762 166.478 48.4762C167.269 48.5327 168.171 48.4198 169.215 48.1659Z" fill="#808083"/>
<path d="M183.182 31.772C184.537 33.1264 185.214 35.0169 185.214 37.5564V49.9999H183.239V46.9243C181.63 49.2663 179.289 50.4232 176.128 50.4232C174.21 50.4232 172.601 49.9435 171.275 49.0124C169.949 48.053 169.3 46.7268 169.3 45.062C169.3 43.4255 169.949 42.1839 171.162 41.1681C172.432 40.2088 174.097 39.7291 176.185 39.7291H183.07V37.4435C183.07 35.5812 182.59 34.114 181.574 33.1264C180.586 32.1388 179.26 31.6309 177.567 31.6309C175.254 31.6309 173.25 32.7313 171.529 34.9605L170.09 33.8318C172.009 31.0948 174.548 29.7122 177.68 29.7122C180.022 29.7686 181.828 30.4176 183.182 31.772ZM181.123 46.8961C182.449 45.7674 183.126 44.3284 183.126 42.6354V41.5349H176.41C174.802 41.5349 173.561 41.8453 172.714 42.4379C171.868 43.0304 171.444 43.8769 171.444 44.9492C171.444 46.1343 171.924 47.0654 172.883 47.7144C173.843 48.3634 175 48.6738 176.326 48.6738C178.216 48.6173 179.796 48.053 181.123 46.8961Z" fill="#808083"/>
<path d="M191.478 50H189.418V19.2156H191.478V50Z" fill="#808083"/>
<path d="M23.2223 22.9966H28.3013V49.9717H23.2223V46.8397C20.711 48.9559 17.4943 50.5643 14.1366 50.5643C10.3555 50.5643 6.82843 49.1535 4.11963 46.5011C1.46727 43.7923 0 40.2652 0 36.4842C0 32.7031 1.49548 29.1761 4.11963 26.4673C6.82843 23.8149 10.3555 22.4041 14.1366 22.4041C17.4943 22.4041 20.6828 24.0124 23.2223 26.1287V22.9966ZM23.2223 36.4842C23.2223 31.4616 19.1591 27.342 14.1366 27.342C9.11399 27.342 5.05078 31.4616 5.05078 36.4842C5.05078 41.5067 9.11399 45.6264 14.1366 45.6264C19.1591 45.5982 23.2223 41.4785 23.2223 36.4842Z" fill="#2FA7DF"/>
<path d="M56.6866 22.9966L45.7385 49.9717H40.2645L29.3164 22.9966H34.7904L43.0297 43.2562L51.2125 22.9966H56.6866Z" fill="#2FA7DF"/>
<path d="M58.8037 17.8047C58.8037 15.9989 60.2992 14.5034 62.1615 14.5034C63.9674 14.5034 65.4628 15.9989 65.4628 17.8047C65.4628 19.6106 63.9674 21.1625 62.1615 21.1625C60.271 21.1625 58.8037 19.6388 58.8037 17.8047ZM59.5938 22.9966H64.6728V49.9717H59.5938V22.9966Z" fill="#2FA7DF"/>
<path d="M94.9493 22.9966L84.0012 49.9717H78.5272L67.5791 22.9966H73.0531L81.2924 43.2562L89.4752 22.9966H94.9493Z" fill="#2FA7DF"/>
<path d="M59.6218 10.8352C54.7686 4.0632 46.8961 0 38.5722 0C37.5 0 36.3995 0.0564342 35.3273 0.225734C25.8747 1.41083 17.8612 7.64672 14.4187 16.5068C14.3059 16.7325 14.2494 16.8736 14.1648 17.0429L13.8826 18.0587C13.7697 18.5383 13.8262 19.018 14.0519 19.4131C14.3059 19.8081 14.6727 20.1185 15.1241 20.2596C15.9142 20.4853 16.8171 20.0903 17.184 19.3566C17.2404 19.2438 17.2686 19.1309 17.2968 19.018L17.4097 18.5384C20.2314 10.4684 27.2573 4.82505 35.6941 3.75282C36.597 3.63995 37.5564 3.58352 38.5158 3.58352C45.711 3.58352 52.5112 7.08238 56.6873 12.9232C57.0259 13.4029 57.5338 13.6569 58.1263 13.6569C58.4932 13.6569 58.86 13.544 59.1704 13.3183C59.9886 12.7539 60.1862 11.6253 59.6218 10.8352Z" fill="#808083"/>
<path d="M192.212 13.1208C192.212 12.4436 192.381 11.7664 192.748 11.1738C193.087 10.5813 193.566 10.1016 194.159 9.76298C194.751 9.42438 195.4 9.22687 196.106 9.22687C196.783 9.22687 197.46 9.39617 198.053 9.76298C198.645 10.1016 199.125 10.5813 199.464 11.1738C199.802 11.7664 200 12.4153 200 13.1208C200 13.798 199.83 14.4469 199.492 15.0395C199.153 15.632 198.702 16.1117 198.081 16.4786C197.488 16.8172 196.811 17.0147 196.078 17.0147C195.344 17.0147 194.695 16.8454 194.102 16.4786C193.51 16.14 193.03 15.6321 192.692 15.0677C192.381 14.447 192.212 13.798 192.212 13.1208ZM192.776 13.1208C192.776 13.7133 192.946 14.2777 193.228 14.7856C193.51 15.3217 193.933 15.7167 194.469 16.0271C195.005 16.3092 195.541 16.4786 196.134 16.4786C196.727 16.4786 197.291 16.3092 197.799 16.0271C198.307 15.7449 198.73 15.3217 199.04 14.7856C199.323 14.2777 199.492 13.7133 199.492 13.1208C199.492 12.5282 199.323 11.9639 199.04 11.456C198.758 10.9481 198.335 10.5248 197.799 10.2145C197.291 9.93228 196.727 9.76298 196.134 9.76298C195.541 9.76298 194.977 9.93228 194.469 10.2145C193.961 10.4966 193.538 10.9199 193.228 11.456C192.917 11.9357 192.776 12.4718 192.776 13.1208ZM197.714 12.1614C197.714 12.4436 197.63 12.6975 197.488 12.895C197.319 13.1208 197.15 13.2619 196.868 13.3747L198.109 15.4345H197.234L196.162 13.6005H195.457V15.4345H194.695V10.807H196.049C196.614 10.807 197.037 10.9199 197.319 11.1456C197.573 11.3431 197.714 11.7099 197.714 12.1614ZM195.429 12.9232H195.993C196.275 12.9232 196.501 12.8386 196.67 12.6975C196.839 12.5564 196.924 12.3589 196.924 12.1614C196.924 11.9074 196.839 11.7099 196.698 11.5971C196.529 11.4842 196.303 11.4278 195.993 11.4278H195.457L195.429 12.9232Z" fill="#808083"/>
<path d="M107.364 69.7516H99.5478L98.0805 73.2787H96.8672L103.244 58.1828H103.724L110.073 73.2787H108.831L107.364 69.7516ZM99.9992 68.6794H106.912L103.47 60.2708L99.9992 68.6794Z" fill="#808083"/>
<path d="M111.907 67.8329C111.907 64.6726 114.39 62.1895 117.551 62.1895C119.413 62.1895 120.965 63.0643 121.952 64.4187L121.134 65.0676C120.288 63.939 119.074 63.2336 117.551 63.2336C115.011 63.2336 113.092 65.2652 113.092 67.8329C113.092 70.4288 115.011 72.4604 117.522 72.4604C119.046 72.4604 120.259 71.755 121.134 70.6263L121.952 71.2753C120.965 72.6297 119.413 73.5044 117.522 73.5044C114.39 73.5044 111.907 70.9931 111.907 67.8329Z" fill="#808083"/>
<path d="M132.929 66.4503V73.2787H131.857V71.5575C131.067 72.7708 129.684 73.5044 127.963 73.5044C125.959 73.5044 124.21 72.4886 124.21 70.5417C124.21 68.764 125.734 67.6354 127.991 67.6354H131.772V66.3938C131.772 64.2494 130.559 63.2054 128.781 63.2054C127.314 63.2054 126.326 63.939 125.48 65.0394L124.69 64.4187C125.734 62.9232 127.144 62.1613 128.866 62.1613C131.208 62.1613 132.929 63.6286 132.929 66.4503ZM131.772 69.2155V68.5947H128.104C126.326 68.5947 125.367 69.2719 125.367 70.457C125.367 71.8679 126.721 72.4886 128.047 72.4886C130.051 72.5169 131.772 71.1342 131.772 69.2155Z" fill="#808083"/>
<path d="M147.008 57.5338V73.2787H145.935V71.0778C145.117 72.6015 143.396 73.5044 141.505 73.5044C138.43 73.5044 136.088 70.9931 136.088 67.8611C136.088 64.6726 138.373 62.1895 141.505 62.1895C143.34 62.1895 145.061 63.0925 145.907 64.5315V57.562H147.008V57.5338ZM145.907 67.8611C145.907 64.6162 143.763 63.2336 141.618 63.2336C139.107 63.2336 137.273 65.2087 137.273 67.8329C137.273 70.457 139.107 72.4604 141.618 72.4604C143.763 72.4604 145.907 71.0778 145.907 67.8611Z" fill="#808083"/>
<path d="M160.665 68.115H151.551C151.693 70.6545 153.555 72.4604 156.038 72.4604C157.562 72.4604 158.775 71.8114 159.678 70.7392L160.411 71.4728C159.339 72.7144 157.844 73.5044 156.038 73.5044C152.878 73.5044 150.395 71.0214 150.395 67.8611C150.395 64.7008 152.793 62.1895 155.897 62.1895C158.549 62.1895 160.75 64.0518 160.75 67.0428C160.75 67.4943 160.694 67.9175 160.665 68.115ZM151.608 67.0993H159.593C159.678 64.6726 157.9 63.2336 155.84 63.2336C153.611 63.2053 151.918 64.8701 151.608 67.0993Z" fill="#808083"/>
<path d="M179.599 66.422V73.3069H178.442V66.5349C178.442 64.6444 177.398 63.2618 175.564 63.2618C173.702 63.2618 172.404 64.6726 172.404 66.3374V73.3069H171.275V66.5349C171.275 64.6162 170.203 63.2618 168.369 63.2618C166.507 63.2618 165.209 64.6444 165.209 66.5349V73.3069H164.08V62.4153H165.152V63.8261C165.886 62.7821 167.043 62.1895 168.51 62.1895C170.231 62.1895 171.388 63.036 171.924 64.3058C172.602 63.1207 173.871 62.1895 175.677 62.1895C178.217 62.1613 179.599 63.939 179.599 66.422Z" fill="#808083"/>
<path d="M192.663 62.3871L187.245 75.0563C186.455 76.8904 185.355 77.5676 183.831 77.5676C183.351 77.5676 182.787 77.5112 182.307 77.3701V76.3825C182.815 76.4954 183.267 76.5518 183.69 76.5518C184.762 76.5518 185.609 76.1286 186.201 74.6895L186.907 73.0812L182.251 62.4153H183.493L187.527 71.7832L191.478 62.4153H192.663V62.3871Z" fill="#808083"/>
<path d="M91.7041 69.4412C91.8452 69.4694 91.7888 69.1026 91.817 69.018C91.563 69.1026 91.7041 69.5541 91.7041 69.4412Z" fill="#D1D2D3"/>
<path d="M89.4755 70.2877L89.5037 70.1748L89.1934 70.5416L89.4755 70.2877Z" fill="#D1D2D3"/>
<path d="M87.3867 70.2877C87.5842 70.9367 88.1486 70.1748 88.4872 70.4288L88.5436 70.5981L88.7129 70.062C88.2897 70.1184 87.7253 70.4852 87.3867 70.2877Z" fill="#D1D2D3"/>
<path d="M86.315 68.8487C86.3996 69.1308 86.061 69.0744 86.5971 68.9333C86.5689 68.9051 86.5689 68.8769 86.5407 68.8769C86.4561 68.8769 86.3996 68.8769 86.315 68.8487Z" fill="#D1D2D3"/>
<path d="M86.5118 68.8769C86.3708 68.6512 86.7376 68.8487 86.5118 68.8769V68.8769Z" fill="#D1D2D3"/>
<path d="M85.5251 68.9897L85.8355 68.764C85.779 68.5947 85.5251 68.5665 85.6097 68.4536C85.2711 68.6229 85.3558 68.764 85.5251 68.9897Z" fill="#D1D2D3"/>
<path d="M85.2432 69.4976L85.4125 69.3848C85.356 69.3283 85.3278 69.3001 85.2432 69.4976Z" fill="#D1D2D3"/>
<path d="M85.6941 69.1873L85.3555 69.413C85.4119 69.5259 85.4119 69.7234 85.4966 69.3283C85.5248 69.5259 85.5812 69.3283 85.6941 69.1873Z" fill="#D1D2D3"/>
<path d="M85.8916 69.3001C86.0609 69.4412 86.2584 69.5541 85.9762 69.7516C86.5124 69.6952 86.4277 69.1873 85.8916 69.3001Z" fill="#D1D2D3"/>
<path d="M87.3027 70.9649L87.5285 71.1624L87.726 70.9367C87.6131 71.0496 87.3027 70.7674 87.3027 70.9649Z" fill="#D1D2D3"/>
<path d="M83.7479 68.6794C83.7197 68.8205 83.8607 69.0462 83.8607 69.2155L84.0865 69.0462C83.9454 68.9616 83.7479 68.8487 83.7479 68.6794Z" fill="#D1D2D3"/>
<path d="M83.8318 69.2155L83.4932 69.4694C83.8035 69.4694 83.86 69.3566 83.8318 69.2155Z" fill="#D1D2D3"/>
<path d="M85.1861 70.2031L85.694 69.7234L85.0732 70.2313L85.1861 70.2031Z" fill="#D1D2D3"/>
<path d="M82.5337 68.6229L82.703 68.3126L82.3926 68.7922L82.5337 68.6229Z" fill="#D1D2D3"/>
<path d="M81.7155 68.6794C81.8566 68.3972 81.518 68.2279 81.6591 68.0586C81.4333 68.1151 81.264 68.3126 81.0947 68.5383C81.2922 68.4254 81.4615 68.4537 81.7155 68.6794Z" fill="#D1D2D3"/>
<path d="M80.8125 68.8487C80.8972 68.7922 81.01 68.6511 81.0947 68.5665C81.01 68.6229 80.8972 68.7076 80.8125 68.8487Z" fill="#D1D2D3"/>
<path d="M82.9854 69.3848C82.9572 69.3001 82.9007 69.0744 82.7314 68.9897L82.8725 69.3848C82.9007 69.3566 82.9572 69.3848 82.9854 69.3848Z" fill="#D1D2D3"/>
<path d="M82.873 69.3848C82.7319 69.3566 82.619 69.3566 82.5908 69.3566C82.619 69.3566 82.7037 69.3566 82.873 69.3848Z" fill="#D1D2D3"/>
<path d="M83.0417 69.3848C83.0135 69.413 83.0135 69.4412 83.0417 69.3848V69.3848Z" fill="#D1D2D3"/>
<path d="M84.3394 69.8645C84.1419 70.0902 83.7751 70.3159 84.1419 70.6545C84.283 70.3724 84.0855 70.1749 84.3394 69.8645Z" fill="#D1D2D3"/>
<path d="M83.1543 69.8645L83.4647 69.9491C83.4647 69.8363 83.4083 69.6952 83.4929 69.5823L83.1543 69.8645Z" fill="#D1D2D3"/>
<path d="M83.0137 70.0056L83.1548 69.8645L83.0701 69.8363L83.0137 70.0056Z" fill="#D1D2D3"/>
<path d="M81.3771 69.2155C81.2361 69.3848 81.0668 69.413 80.8975 69.4412C81.095 69.5259 81.2925 69.5541 81.49 69.5541C81.5182 69.4412 81.6029 69.2155 81.3771 69.2155Z" fill="#D1D2D3"/>
<path d="M82.1112 69.3283C82.083 69.3848 82.1112 69.413 82.1112 69.3283V69.3283Z" fill="#D1D2D3"/>
<path d="M79.1475 69.413C79.1475 69.4412 79.1757 69.4695 79.1757 69.4977C79.1757 69.4695 79.1757 69.4412 79.1475 69.413Z" fill="#D1D2D3"/>
<path d="M81.5179 69.6105C81.659 69.6952 81.7719 69.5823 81.8565 69.4695C81.7437 69.4977 81.6308 69.5259 81.5179 69.5541C81.4897 69.6105 81.4615 69.6388 81.5179 69.6105Z" fill="#D1D2D3"/>
<path d="M80.333 69.0179C80.4177 69.1026 80.5023 69.1872 80.587 69.2437C80.5023 69.1308 80.3612 68.9333 80.333 69.0179Z" fill="#D1D2D3"/>
<path d="M82.026 69.2437C81.9978 69.1308 81.9978 69.1873 82.026 69.2437V69.2437Z" fill="#D1D2D3"/>
<path d="M82.0266 69.2437C81.942 69.3001 81.8855 69.413 81.8291 69.4976C81.9138 69.4694 81.9984 69.413 82.083 69.3566C82.0548 69.3283 82.0266 69.2719 82.0266 69.2437Z" fill="#D1D2D3"/>
<path d="M78.5834 71.9525C78.6116 71.5857 79.0066 71.2471 79.317 71.6421C79.6556 71.3882 79.4299 70.1467 79.1759 69.4695C79.1759 69.6388 79.1759 69.7798 78.8091 69.9773C78.922 70.1749 79.5427 70.4288 79.2606 70.7956C78.8373 70.9931 78.922 70.6546 78.6962 70.457C78.8938 70.9085 78.1319 71.1342 78.2166 71.7832L78.5834 71.5293C78.6116 71.6703 78.4705 71.8396 78.5834 71.9525Z" fill="#D1D2D3"/>
<path d="M79.7964 69.5259L79.9375 69.4694C79.7682 69.413 79.6554 69.2437 79.4578 68.9897C79.2321 69.1873 79.1757 69.3001 79.1475 69.413L79.8247 69.4694L79.7964 69.5259Z" fill="#D1D2D3"/>
<path d="M80.5583 69.4694C80.4454 69.8645 80.135 70.0338 80.3043 70.457C80.6994 70.4288 80.5865 70.1466 80.8122 69.9491C80.1632 70.062 81.0097 69.7516 80.5583 69.4694C80.6994 69.413 80.8122 69.413 80.8969 69.3848C80.784 69.3283 80.6711 69.2719 80.5865 69.1873C80.5865 69.1873 80.5865 69.2155 80.6147 69.2155C80.6429 69.2719 80.6429 69.3001 80.6147 69.2719C80.6147 69.2719 80.6147 69.2719 80.5865 69.2719C80.5865 69.413 80.5865 69.4412 80.5583 69.4694C80.3608 69.3848 80.5301 69.3566 80.5865 69.3001C80.5865 69.2719 80.5865 69.2719 80.5865 69.2437L79.9375 69.4694C80.0786 69.5259 80.2479 69.5259 80.5583 69.4694Z" fill="#D1D2D3"/>
<path d="M83.8035 71.501C83.7753 71.4728 83.7753 71.4446 83.7753 71.4164C83.7471 71.4728 83.7189 71.501 83.8035 71.501Z" fill="#D1D2D3"/>
<path d="M83.5212 71.2471C83.5776 71.1907 83.6058 71.0213 83.7751 71.0778C83.9162 71.1906 83.7751 71.2753 83.7751 71.3882C83.8598 71.2753 84.1137 71.106 83.8034 70.9085L83.7469 70.9649C83.4648 70.8238 83.1544 70.3442 83.2108 70.2877C83.2955 70.6545 83.3801 70.9085 83.5212 71.2471Z" fill="#D1D2D3"/>
<path d="M82.0254 70.4852L81.4893 70.6827L81.7432 71.0213L81.715 70.7956C82.0536 70.9085 81.9972 70.6263 82.0254 70.4852Z" fill="#D1D2D3"/>
<path d="M79.0909 69.2437L79.1473 68.7923L78.8369 69.3848L79.0909 69.2437Z" fill="#D1D2D3"/>
<path d="M78.3861 69.2719L78.4143 68.9051L78.2168 69.1308L78.3861 69.2719Z" fill="#D1D2D3"/>
<path d="M38.7132 73.5326L38.5439 73.6455C38.6286 73.6173 38.685 73.5891 38.7132 73.5326Z" fill="#D1D2D3"/>
<path d="M39.8418 73.5609L39.87 73.3633C39.8418 73.4762 39.8135 73.5609 39.8418 73.5609Z" fill="#D1D2D3"/>
<path d="M61.1169 69.1873C60.863 68.8487 60.6373 68.3126 60.6655 68.7358L60.7501 69.1308C60.8912 69.0462 61.0041 69.1026 61.1169 69.1873Z" fill="#D1D2D3"/>
<path d="M49.2939 71.5293C49.3222 71.5575 49.3504 71.6139 49.3786 71.6704C49.435 71.5293 49.4915 71.3882 49.5479 71.3036C49.435 71.3318 49.3786 71.4164 49.2939 71.5293Z" fill="#D1D2D3"/>
<path d="M49.1249 73.1658L48.8428 72.8837C48.871 72.9965 48.9556 73.0812 49.1249 73.1658Z" fill="#D1D2D3"/>
<path d="M32.4211 73.9277L32.2236 74.3227C32.5058 74.3227 32.3929 74.1252 32.4211 73.9277Z" fill="#D1D2D3"/>
<path d="M71.1906 69.3566C70.9931 69.1873 70.852 69.1308 70.7109 69.1026C70.9085 69.3566 71.1342 69.6952 71.1906 69.3566Z" fill="#D1D2D3"/>
<path d="M39.1938 69.3001C39.081 69.3848 39.0527 69.4694 39.0527 69.5541C39.1374 69.4694 39.1938 69.413 39.1938 69.3001Z" fill="#D1D2D3"/>
<path d="M70.0908 69.1309C70.119 69.1591 70.1755 69.1873 70.2037 69.2155C70.3448 69.1591 70.5141 69.1026 70.6552 69.1026C70.5141 68.9616 70.2883 68.8487 70.0908 69.1309Z" fill="#D1D2D3"/>
<path d="M9.62186 73.448C9.59365 73.4198 9.59365 73.4198 9.56543 73.3915C9.56543 73.448 9.59365 73.448 9.62186 73.448Z" fill="#D1D2D3"/>
<path d="M3.01855 69.3566C3.07499 69.3284 3.18785 69.3284 3.30072 69.3284C3.24429 69.3002 3.15964 69.3002 3.01855 69.3566Z" fill="#D1D2D3"/>
<path d="M75.5645 69.0744C75.5927 69.018 75.7055 69.0462 75.5645 69.0744V69.0744Z" fill="#D1D2D3"/>
<path d="M76.2703 70.6827C76.2421 70.7392 76.2139 70.7956 76.2139 70.8803C76.2139 70.7392 76.2421 70.711 76.2703 70.6827Z" fill="#D1D2D3"/>
<path d="M68.5947 71.5857C68.6229 71.6703 68.6229 71.6703 68.5947 71.5857V71.5857Z" fill="#D1D2D3"/>
<path d="M75.762 69.272C75.7055 69.2155 75.6491 69.1873 75.5645 69.1591C75.6209 69.1873 75.6773 69.2155 75.762 69.272Z" fill="#D1D2D3"/>
<path d="M75.7334 69.0744C75.7898 69.1026 75.818 69.1026 75.8745 69.1026C75.9027 69.0462 75.8745 68.9898 75.7334 69.0744Z" fill="#D1D2D3"/>
<path d="M75.3379 69.1026C75.4225 69.1026 75.5072 69.1026 75.5918 69.159C75.5636 69.1308 75.5354 69.1026 75.5636 69.1026C75.5072 69.0744 75.4508 69.1026 75.3379 69.1026Z" fill="#D1D2D3"/>
<path d="M21.8402 72.4604C21.6709 72.5733 21.7274 72.5733 21.8402 72.4604V72.4604Z" fill="#D1D2D3"/>
<path d="M56.6875 73.6173C56.9132 73.1376 57.0543 73.194 57.2236 73.3069L57.0543 72.15L56.6875 73.6173Z" fill="#D1D2D3"/>
<path d="M35.9479 73.6455L36.3147 74.0123C35.8632 74.6049 35.5246 74.3791 35.8632 74.887C35.9197 73.6455 37.3305 74.7742 37.3869 73.5326L37.6409 73.8148C37.5562 73.8148 37.5562 73.8712 37.4716 73.8712C37.9513 74.4638 37.8384 72.9683 38.4592 73.1376C38.6849 73.2505 38.826 73.4198 38.6849 73.5608L39.1646 73.2787C39.3057 73.3069 39.2775 73.5326 39.1364 73.5044L39.87 73.3915V73.4198C39.9829 73.2222 40.2368 72.9119 40.3215 72.799C40.519 72.9965 40.2368 72.9401 40.265 73.1094L40.6601 72.8272C40.8294 73.1658 40.4908 73.4762 40.2086 73.4198C40.5754 74.6613 40.5754 73.1094 41.3655 73.843L40.9987 74.0123C41.2244 74.7177 41.5348 74.4638 41.958 74.9152C41.8452 74.6613 41.1115 73.8148 41.5348 73.4762C41.6759 73.589 41.817 73.6173 42.0709 73.3633C42.0709 73.8148 42.3248 73.7019 42.5788 73.7019L42.5506 74.2945C42.8892 74.1252 42.861 73.843 43.0303 73.5608C43.3689 73.6173 43.4535 74.0687 43.5382 74.4638C44.1025 74.5484 43.1713 73.7301 43.8203 73.6173C44.2718 73.843 44.6104 73.5891 45.1747 73.2505C45.4851 73.4762 45.1183 73.5891 45.2312 73.7866L45.5415 73.3351C45.6262 73.3351 45.598 73.5044 45.5698 73.5608C45.8237 73.3633 45.598 72.9683 45.993 72.799C46.1059 72.15 46.7831 73.7584 47.2628 73.0247C47.3756 73.194 47.2063 73.3633 47.2345 73.6173C47.8835 73.1376 47.7989 73.2787 48.335 72.6297L48.7865 72.9965C48.4761 72.5733 48.8711 72.0371 49.2662 71.5857C49.1533 71.3599 49.0404 71.1906 48.984 71.106L49.5765 70.7956C49.6612 70.9085 49.5765 71.106 49.4919 71.3317C49.5483 71.2753 49.5765 71.2189 49.6047 71.1906C49.8305 71.4164 49.7176 71.755 49.5483 72.0936C49.4637 71.9807 49.4072 71.8396 49.3226 71.755C49.1815 72.0936 49.0122 72.5168 49.0686 72.8554C49.0968 72.7708 49.1815 72.7143 49.2662 72.6861C49.2379 72.799 49.2097 72.8836 49.2097 72.9401C49.2379 72.9965 49.2944 72.8554 49.4072 72.7143L49.5483 73.3633L49.5765 73.0812L50.3666 73.5044C50.9309 72.8272 51.4388 71.8678 52.3135 71.6139C52.0878 72.0936 52.2571 72.404 52.2571 72.9683C52.0314 72.3757 51.5517 73.2222 51.1002 73.1094C51.3542 73.1658 51.2978 73.448 51.2413 73.5326L52.0596 72.9965C52.0314 73.448 52.2289 73.3351 52.4264 73.5326C52.2571 72.6015 53.0472 72.9119 53.3858 72.6579C53.414 72.9683 53.3294 73.2787 52.9343 73.194C53.3858 73.8994 53.5269 72.1218 53.9501 72.7143C53.8372 72.7143 53.7808 72.6861 53.7526 72.8272C54.0065 72.545 54.5709 72.7708 54.4298 73.0529H54.3169C54.9941 73.1658 56.3485 73.0529 56.4332 72.2911C56.4332 72.404 56.3485 73.2222 56.2921 73.3915L57.5054 70.7674C57.3925 71.4446 57.7876 73.0247 57.2515 73.448C57.4208 73.5608 57.5901 73.6737 57.9287 73.4198C57.8158 73.3069 57.6747 72.4322 57.8158 72.404C58.2108 73.1658 58.0697 72.799 58.6059 73.448C58.4366 73.3069 58.6341 72.2347 58.888 72.2911C58.8598 72.4604 58.9162 73.3351 58.8034 73.448L59.4242 72.4322C59.2549 72.6297 59.3959 73.3351 59.537 73.5891C59.4806 73.3633 60.0731 73.6173 60.2707 73.5044L59.9885 73.2505C60.7221 73.4198 60.6939 71.7832 61.3993 71.8678C61.3147 72.0936 61.1736 73.194 61.5404 73.3351C61.7097 72.799 62.274 70.7674 62.923 70.3723L63.0359 70.6827L63.5156 70.3441C63.2052 71.1624 62.3587 72.8272 61.9072 73.4762C62.1894 73.7301 61.9919 73.8148 62.3869 73.8148C62.528 74.1252 62.1612 74.238 62.0483 74.2663L62.9794 74.4638C62.923 73.843 63.6849 73.843 63.6567 73.3351L62.6126 73.9841C62.5562 73.3633 63.2052 72.2346 63.8542 72.3475C64.0235 72.6015 63.7131 73.448 63.7413 73.6737C63.826 73.448 64.3621 73.2787 64.4467 73.448L64.1646 73.7583C64.5314 74.0123 64.7571 72.9401 65.2086 73.5326C65.3779 73.5608 65.66 74.3509 65.6882 73.9559C65.4625 73.2505 65.4061 71.0778 65.5754 70.5134C65.6318 70.5699 66.3937 71.1906 66.5348 71.5575C66.7605 72.1218 66.1397 72.8836 66.3654 73.3633C66.3654 73.194 66.5065 72.9965 66.5912 72.9118C66.7605 73.0529 66.5348 73.4198 66.8451 73.3633C66.9016 72.7426 67.5506 73.4198 67.0144 72.8272C67.353 72.6297 67.353 72.9683 67.7763 72.9401C67.6352 72.545 68.1431 71.5575 68.4817 71.3882C68.4535 71.5575 68.5381 71.755 68.5664 71.8396C69.2718 71.8961 69.6386 72.2064 70.2876 72.2064C70.344 72.3757 70.6544 72.545 70.5133 72.799C70.598 72.6861 70.7108 72.4886 70.8801 72.4604C71.2469 72.9965 70.4287 72.545 70.7108 73.194C70.739 72.8272 71.2187 72.6861 71.5291 72.4604C71.4445 71.8961 70.8519 72.3475 70.5697 72.5733C70.5697 71.7832 71.0776 70.9931 71.7831 70.6263C72.3192 70.4288 72.0088 71.1342 72.0934 71.0213C73.1092 71.1624 72.9682 69.6669 73.7864 70.2313C74.0968 70.7109 73.8147 71.2189 73.8711 71.5857C73.4478 71.7832 73.1939 71.2471 72.9117 71.2753L73.2785 71.5292C73.1375 71.6985 72.8553 71.8114 72.686 71.6703C72.9399 72.1218 74.4072 71.755 75.1973 72.1782C75.3384 72.0089 75.5641 71.8396 75.4794 71.6421L75.2255 71.7268C74.9998 71.3317 75.6769 71.1906 75.3948 70.9931C75.7334 70.7392 76.1002 70.2595 76.5799 70.5134L76.6645 71.0778C76.6645 70.9085 76.3824 70.7392 76.2413 70.9085C76.4388 70.6545 76.9749 71.6703 77.1724 70.9367L76.8621 70.5417C77.2007 70.2595 77.6239 69.6669 78.0189 69.8362C77.8214 69.2719 77.9061 69.8927 77.6521 69.2437C77.8779 70.062 76.6081 69.2155 77.0031 70.062C76.721 69.3001 76.4952 69.7234 76.1002 69.0744C76.1002 69.2719 76.2413 69.413 75.8745 69.3566C75.8463 69.413 75.818 69.4976 75.7898 69.5258C75.7898 69.5258 75.7616 69.5259 75.7616 69.4976C75.7616 69.4976 75.7616 69.5258 75.7898 69.5258C75.7616 69.5541 75.7616 69.5541 75.7898 69.5258C75.8745 69.6105 75.9591 69.7234 75.9873 69.8362C75.818 70.2595 75.2537 70.2313 75.0562 70.4852C74.8305 70.4006 75.1408 70.2595 75.028 70.0902L74.7458 70.4006C74.7176 70.0055 74.2097 69.6952 74.6894 69.4694L74.2661 69.4412C73.9839 69.1873 73.6453 69.1026 73.4196 69.2719C73.1939 69.1873 72.9117 69.7234 73.081 69.413L72.4038 69.6669V69.5541C71.7266 69.4976 70.993 70.2313 70.2311 69.4976C70.0054 69.6105 69.7797 69.7516 69.3846 69.6105L69.3 69.2719C68.9896 69.413 68.4253 68.9051 68.3124 69.3001C68.002 68.3125 66.8733 69.0744 66.3654 68.9051L66.3372 69.3566C65.9986 69.3283 65.6318 69.4694 65.2086 69.6387L65.2368 70.0338C64.87 70.3724 64.2774 69.7234 63.6849 69.7798C63.7413 69.6105 63.8824 69.6669 63.9953 69.7516C63.2616 68.7922 62.4716 70.4288 61.8226 69.7516C61.6533 69.9209 61.5404 69.8645 61.4275 69.7516C61.4557 69.7516 61.4557 69.7516 61.4557 69.7234C61.4275 69.7234 61.3993 69.7234 61.3993 69.7234C61.3147 69.6387 61.2582 69.5541 61.1736 69.4976C61.2582 69.6105 61.3147 69.6952 61.3711 69.7234C61.23 69.7234 61.0607 69.7798 60.8632 69.8927L60.7785 69.4694C60.7503 69.4694 60.7503 69.4694 60.7221 69.4694C60.5246 69.3001 60.581 69.6952 60.6657 70.0055C60.581 70.0902 60.4682 70.1748 60.4117 70.2877C60.2707 69.5541 59.9321 70.5134 59.7063 69.7798C59.5652 70.1466 58.7469 70.0338 58.6623 70.8238C58.6623 70.711 58.6059 70.6545 58.6905 70.6545C58.4648 70.5699 58.2955 70.457 58.098 70.711L58.0133 70.1466L57.5619 70.9085C57.3079 70.5699 57.195 70.3723 57.449 69.9491C56.8 70.6263 56.9129 70.1748 56.3485 70.852L56.3767 70.4852C56.1792 70.5134 55.8689 70.9931 55.7278 70.6827C55.2763 69.9773 53.5269 70.5699 52.37 69.9209C52.5675 70.9931 51.8339 69.4412 51.7774 70.2595C51.721 70.0055 51.5517 69.8645 51.721 69.6387C51.1284 69.8645 50.8463 69.2155 50.423 69.9209C50.3666 69.6669 50.5641 69.5541 50.4795 69.413C50.423 69.4694 50.282 69.6387 50.2255 69.4976C50.1691 69.3283 50.3102 69.2719 50.423 69.1873C49.8305 69.2437 49.7458 70.0338 49.7176 70.7392C49.4355 70.3724 49.2661 70.4288 49.0404 70.9367C48.9275 70.6827 48.7865 70.457 49.1251 70.3723C48.8993 70.3441 47.8271 70.0055 47.8271 70.5981C47.7707 70.4288 47.5167 70.5417 47.4885 70.6263C47.037 70.5981 46.9806 70.5417 46.5291 70.5981L46.6702 70.711C46.4727 71.4164 46.3034 70.8802 45.9084 70.9367V70.852C45.0337 70.3441 45.5415 71.106 44.695 70.4852L44.7515 70.9085C44.6668 71.8396 43.9896 70.3441 43.51 70.711L43.7075 70.9649C43.4253 71.2753 42.9738 69.6669 42.6917 69.5541C42.6352 69.4694 42.7763 69.413 42.861 69.3566C42.1555 68.7922 42.7763 69.9209 42.2402 70.062C42.1273 69.7234 42.3813 69.2719 42.0427 69.1873C41.8452 68.9333 40.9987 70.2031 40.519 69.5823C40.6319 69.8362 40.7447 70.062 40.4908 70.2595C40.1239 70.3441 39.5032 69.3283 39.1364 70.0902C39.0799 70.0337 39.0799 69.9491 39.0799 69.8927C38.7695 70.0902 38.1488 70.2031 37.9795 70.6263C37.7255 69.0744 36.2018 71.3599 36.23 69.9491L35.3553 70.0338L35.3835 69.8927C34.8192 69.808 34.6217 70.1184 34.4242 70.4852C34.2831 70.3724 34.396 70.2595 34.396 70.1748C33.5777 69.8645 33.493 69.9491 32.7876 70.6545L32.703 70.2031C32.5054 70.4852 31.5179 69.4694 30.6996 70.0055C30.6996 69.9491 30.7278 69.8645 30.7842 69.7798C29.8813 70.3159 28.6398 68.5101 28.3012 70.1748L27.7086 70.5699C28.4987 70.711 27.5957 71.3035 27.9061 71.5575C27.5957 71.6703 27.1161 71.0496 27.5111 70.9649L27.5675 71.0496C27.7086 70.1748 26.6082 70.7392 26.6364 70.1466C25.1127 70.2031 23.6454 69.6952 22.2064 69.6387L22.3757 70.3159L21.896 70.2877C21.7549 70.1184 21.7267 69.7516 22.0935 69.7798C21.896 69.413 21.5009 70.0902 21.5009 70.2313C20.7955 69.9491 21.7831 69.4412 21.5574 69.413L21.247 69.4694L21.3034 69.5541C21.0495 69.8362 21.0495 70.1184 20.6262 70.0902C20.3441 69.9491 20.4851 69.6951 20.3723 69.6669C20.3723 69.6105 20.3441 69.5823 20.203 69.6387L19.5822 69.5823L19.8079 70.1184C19.5258 70.4006 19.2154 70.0902 19.4976 70.6827C19.0743 69.7516 17.1838 70.3441 16.9016 70.0338C16.5348 70.4006 16.1116 70.4006 15.6601 70.3441C15.773 70.457 15.8576 71.0496 15.4344 70.9931C15.6037 69.7516 14.6725 70.457 14.3621 69.5541C14.6443 70.1466 13.2052 69.6951 13.6567 70.5134C13.3181 70.4006 13.6285 70.062 13.4028 69.7516C12.5845 70.2313 11.6251 69.413 10.6093 69.5823C10.5811 69.7516 10.7786 69.9773 10.5529 70.2313L10.0168 69.413C9.81924 69.4976 9.81924 70.3441 9.48064 69.7798C9.53708 69.9209 9.62173 70.1184 9.48064 70.1748C7.50548 69.3848 5.44566 70.7956 3.47049 69.3001C3.72444 69.6387 3.55514 69.6387 3.35763 69.6387C3.49871 69.7234 3.35762 70.0338 3.38584 70.2595L2.53934 69.6387C2.37004 70.2595 1.63641 69.6952 1.55176 70.2595L1.83392 70.1466C1.46711 70.852 2.31361 71.6985 2.25717 72.545C2.68042 71.755 3.30119 73.7019 3.95017 72.5733C4.09126 72.7708 3.80909 72.8554 3.89374 73.0529C4.06304 72.6861 4.26056 72.6015 4.62738 72.7708L4.57094 72.8554C5.58674 72.7708 6.06642 73.1376 7.22331 73.4198L7.13866 72.9965C7.39261 73.0529 7.42083 73.194 7.53369 73.3069C7.84408 72.6297 6.82828 73.2787 7.11044 72.545C7.42083 73.448 8.85988 72.545 9.08561 73.5891C9.45243 73.5891 8.97274 73.0812 9.36778 73.0812L9.48064 73.3633L9.59351 73.0247C9.84746 73.0812 9.96033 73.4198 9.96033 73.6455C9.90389 73.6173 9.79103 73.7019 9.70638 73.7301C10.0168 74.0687 10.6375 73.6173 10.7222 73.7301L10.3554 73.5608C11.3994 73.3351 12.6691 73.6737 13.6849 73.1094L13.6003 72.8836C14.3903 72.5168 14.221 73.1094 15.0675 72.9401L15.0393 72.9965C15.2086 72.7708 15.4344 72.7143 15.6601 72.7143C15.4344 72.9683 16.0551 73.1658 15.8012 73.448C16.6477 73.0529 16.1962 73.1376 16.7888 72.3757L16.9298 72.7143C17.1274 72.4322 17.1556 72.2347 17.5506 72.15C17.1838 72.4322 17.8046 72.6579 17.4377 73.0812C18.3125 73.843 18.7639 72.3475 19.159 73.448C19.5822 72.5168 18.3971 72.9401 18.6228 72.7143C18.4253 72.404 18.9614 72.0089 19.2436 72.0936C19.554 72.1218 19.7233 73.3069 20.4287 73.2787C20.3441 73.2787 20.3441 73.3351 20.2876 73.3351C20.5698 73.589 20.7955 73.0247 21.1623 73.3915C21.3599 72.8272 21.5856 73.4198 21.642 72.6861L20.993 72.8554C21.3599 72.6579 21.7267 71.8114 22.3192 72.2347C22.2628 72.3757 22.0653 72.5733 21.9524 72.6861C22.1499 72.9119 22.291 72.545 22.4885 72.7708C22.4321 73.5044 21.6985 72.9401 21.3034 73.5044C21.5009 73.8148 22.0653 72.9683 21.8395 73.7866C22.1499 72.799 22.545 73.9277 23.0246 73.1376L22.9964 73.5608C23.0811 73.4762 23.2504 73.2787 23.3632 73.3069L23.1093 73.8712C23.5043 73.3915 23.8711 74.2945 24.238 74.0405C23.4479 74.0687 24.0404 73.5044 23.7301 73.194C24.7176 72.6015 24.2944 74.3227 25.3666 74.1534C25.2255 74.2098 24.8305 73.8712 25.0562 73.7019C25.282 73.7866 25.5359 73.9841 25.6488 74.1816C26.3824 74.0969 25.5359 73.7301 25.8463 73.448C26.072 73.9841 26.1849 73.2222 26.5235 73.0812V73.5044C27.3418 73.8148 26.7492 72.6015 27.4829 72.9118L27.1443 73.5326L27.5111 73.3633L27.4264 73.8712C27.8215 73.5044 27.9626 73.6173 28.3858 73.7301C28.2729 73.3915 28.4422 72.9118 28.8091 72.9118C29.063 73.194 28.668 73.3351 29.1759 73.2787C29.063 73.5608 28.9219 73.8994 28.7244 73.5044C28.6962 73.6455 28.6115 73.7866 28.5833 73.9277C28.8655 74.238 29.2605 74.0123 29.458 73.9841C29.3734 73.9559 29.2887 73.9277 29.2605 73.8712L30.0224 73.2505C30.1352 73.4198 30.0506 73.5608 29.9377 73.6737C30.107 73.6173 30.1917 73.4198 30.4174 73.3915C30.361 73.7301 30.361 74.1252 30.0506 74.2945L30.756 73.8994C30.8124 74.0687 31.1228 74.3227 31.01 74.4638C31.405 74.6895 31.9975 73.7583 32.5054 74.0405C32.5337 73.9559 32.5901 73.8994 32.703 73.843C33.1826 73.9277 33.6059 74.3509 34.2267 73.8712L34.537 74.5202C34.9885 74.3791 34.0856 73.7019 34.8756 73.4762C35.4118 73.2504 35.0732 74.0123 35.2425 74.2098C35.5246 73.8994 35.9761 73.2222 36.4558 73.7583C36.23 73.6737 36.1172 73.5891 35.9479 73.6455ZM41.563 73.3915C41.4501 73.4762 41.2244 73.7584 41.168 73.5044C41.309 72.9965 41.3655 73.2505 41.563 73.3915ZM50.1127 72.3757C50.028 72.5168 49.8869 72.4604 49.774 72.2911C49.8587 72.2347 49.9716 72.2629 50.1127 72.3757ZM73.8993 69.413C73.8993 69.4412 73.8993 69.4412 73.8993 69.413C73.6736 69.2719 73.7582 69.3283 73.8993 69.413ZM74.4072 69.6387C74.4636 69.5823 74.4636 69.4976 74.4354 69.4412C74.4072 69.5541 74.2943 69.5541 74.1533 69.5258C74.2097 69.6387 74.2661 69.7234 74.4072 69.6387ZM20.2594 69.4412L20.3723 69.5541C20.1465 69.6952 20.203 69.5823 20.2594 69.4412Z" fill="#D1D2D3"/>
<path d="M49.1251 72.9683C49.0968 72.8837 49.0969 72.799 49.0686 72.7144C49.0404 72.8273 49.0404 72.9119 49.1251 72.9683Z" fill="#D1D2D3"/>
<path d="M32.4491 73.843C32.4209 73.8712 32.4209 73.8994 32.4209 73.9277L32.4491 73.843Z" fill="#D1D2D3"/>
<path d="M66.5912 73.3352C66.4783 73.2787 66.4219 73.1941 66.3936 73.0812C66.3654 73.2223 66.4219 73.3069 66.5912 73.3352Z" fill="#D1D2D3"/>
<path d="M77.0876 68.9051L76.749 69.018C76.9183 68.9897 76.9748 69.1026 77.0312 69.159C77.0594 69.018 76.9748 68.9051 77.0876 68.9051Z" fill="#D1D2D3"/>
<path d="M79.8812 71.6703C79.9376 71.6139 79.994 71.6703 80.0222 71.6139V71.3882C79.7965 71.3882 79.6836 71.5575 79.8812 71.6703Z" fill="#D1D2D3"/>
<path d="M77.3701 70.3442C77.3983 70.711 77.5959 70.5981 77.8216 70.5417C77.7934 70.5417 77.7934 70.5417 77.7934 70.5417C77.878 70.0338 77.6241 70.2031 77.3701 70.3442Z" fill="#D1D2D3"/>
<path d="M77.9062 70.5417C77.9909 70.5134 78.0473 70.5134 78.132 70.5417C78.132 70.3159 77.9909 70.4852 77.9062 70.5417Z" fill="#D1D2D3"/>
<path d="M75.0563 69.3566C75.1692 69.4694 75.1127 68.8769 75.1974 69.0462C75.3102 68.5947 74.4637 69.6387 75.0563 69.3566Z" fill="#D1D2D3"/>
<path d="M77.5675 71.5857L77.4829 71.1342L77.3418 71.501L77.5675 71.5857Z" fill="#D1D2D3"/>
<path d="M75.7902 71.2471L76.1288 71.3882C76.1288 71.3035 76.1571 71.2471 76.2417 71.2189C76.016 71.2189 75.762 71.106 75.7902 71.2471Z" fill="#D1D2D3"/>
<path d="M76.2412 71.2189C76.3541 71.2189 76.4669 71.2189 76.5516 71.1342C76.4669 71.1624 76.3259 71.1624 76.2412 71.2189Z" fill="#D1D2D3"/>
<path d="M77.0884 71.7268L76.9755 71.6421L76.6934 71.5857L77.0884 71.7268Z" fill="#D1D2D3"/>
<path d="M71.8965 71.1342L71.5014 71.2753C71.4732 71.4446 71.5579 71.5293 71.7272 71.4728C71.8118 71.3317 71.9529 71.3035 71.8965 71.1342Z" fill="#D1D2D3"/>
<path d="M73.0814 72.404C72.9685 72.2911 72.9685 72.2065 72.9121 72.0654V72.6297L73.0814 72.404Z" fill="#D1D2D3"/>
<path d="M71.9239 72.545C71.8957 72.7143 71.3596 72.9965 71.8393 72.9683C71.8957 72.799 72.2908 72.6579 71.9239 72.545Z" fill="#D1D2D3"/>
<path d="M65.9707 71.755H66.0836L66.0554 70.8239L65.9707 71.755Z" fill="#D1D2D3"/>
<path d="M60.722 73.9841C61.1734 74.2098 60.8348 73.4198 61.2581 73.7019C61.3709 73.4762 60.9195 73.4762 61.0041 73.2787C60.7502 73.4762 60.6091 73.3633 60.722 73.9841Z" fill="#D1D2D3"/>
<path d="M61.0322 73.2787C61.0887 73.2505 61.1169 73.194 61.1733 73.1376C61.1169 73.194 61.0604 73.2223 61.0322 73.2787Z" fill="#D1D2D3"/>
<path d="M1.947 68.8487L1.6084 68.6512L1.83413 68.9897L1.947 68.8487Z" fill="#D1D2D3"/>
<path d="M1.32611 69.5541L1.24146 68.9615L1.04395 69.4976C1.15681 69.4694 1.26968 69.413 1.32611 69.5541Z" fill="#D1D2D3"/>
<path d="M42.3819 74.6049L42.4101 74.4638C42.3537 74.2945 42.2972 74.2945 42.1279 74.2663L42.3819 74.6049Z" fill="#D1D2D3"/>
<path d="M38.3182 74.1252H38.3746L38.2617 73.5891L38.3182 74.1252Z" fill="#D1D2D3"/>
<path d="M34.876 74.8024C35.0171 74.8306 35.1864 74.6895 35.2992 74.7177C35.0171 74.8024 34.876 74.1252 34.876 74.8024Z" fill="#D1D2D3"/>
<path d="M5.13517 62.5564H2.59567L2.1442 63.6004H1.52344L3.75256 58.3521H3.97829L6.2074 63.6004H5.55842L5.13517 62.5564ZM3.86542 59.4525L2.8214 61.992H4.90944L3.86542 59.4525Z" fill="#49494C"/>
<path d="M14.391 58.4367L12.1619 63.685H11.9361L9.70703 58.4367H10.3842L12.0772 62.4999L13.742 58.4367H14.391Z" fill="#49494C"/>
<path d="M18.9904 61.8792H15.9712C16.0559 62.641 16.6202 63.1207 17.3821 63.1207C17.8618 63.1207 18.2286 62.9232 18.539 62.6128L18.8776 63.0078C18.4825 63.4029 17.9746 63.685 17.3539 63.685C16.197 63.685 15.3223 62.8103 15.3223 61.6816C15.3223 60.5812 16.1688 59.6783 17.2692 59.6783C18.2568 59.6783 19.0186 60.3837 19.0186 61.3995C19.0186 61.6252 18.9904 61.7945 18.9904 61.8792ZM15.9995 61.343H18.4261C18.4261 60.6376 17.89 60.2426 17.2974 60.2426C16.6202 60.2426 16.1123 60.6941 15.9995 61.343Z" fill="#49494C"/>
<path d="M24.0401 61.2019V63.6003H23.4476V61.2866C23.4476 60.694 23.0808 60.2708 22.4882 60.2708C21.8957 60.2708 21.4724 60.694 21.4724 61.2866V63.6003H20.8799V59.7911H21.4442V60.1861C21.7264 59.8758 22.1214 59.7065 22.6293 59.7065C23.504 59.7065 24.0401 60.3272 24.0401 61.2019Z" fill="#49494C"/>
<path d="M28.1595 63.0925V63.6004C27.962 63.6568 27.7645 63.685 27.5387 63.685C26.7769 63.685 26.2408 63.3182 26.2408 62.4435V60.3272H25.5918V59.7911H26.2408V58.7471H26.8333V59.7911H28.0184V60.3272H26.8333V62.4153C26.8333 62.9796 27.1719 63.1489 27.6516 63.1489C27.8209 63.1489 27.9902 63.1207 28.1595 63.0925Z" fill="#49494C"/>
<path d="M29.8252 62.0767V59.7911H30.4177V62.1331C30.4177 62.7539 30.8692 63.1489 31.4053 63.1489C31.9414 63.1489 32.3647 62.7539 32.3647 62.1331V59.7911H32.9572V62.0767C32.9572 63.0643 32.2518 63.685 31.3771 63.685C30.5024 63.685 29.8252 63.0643 29.8252 62.0767Z" fill="#49494C"/>
<path d="M37.0483 59.7911V60.3272H36.8226C36.2018 60.3272 35.6375 60.7222 35.6375 61.4559V63.6286H35.0449V59.8193H35.6093V60.3554C35.8914 59.9886 36.3429 59.7911 36.7944 59.7911C36.9072 59.7629 36.9919 59.7629 37.0483 59.7911Z" fill="#49494C"/>
<path d="M41.9299 61.8792H38.9107C38.9954 62.641 39.5597 63.1207 40.3215 63.1207C40.8012 63.1207 41.168 62.9232 41.4784 62.6128L41.817 63.0078C41.422 63.4029 40.9141 63.685 40.2933 63.685C39.1364 63.685 38.2617 62.8103 38.2617 61.6816C38.2617 60.5812 39.1082 59.6783 40.2087 59.6783C41.1963 59.6783 41.9581 60.3837 41.9581 61.3995C41.9863 61.6252 41.9581 61.7945 41.9299 61.8792ZM38.9389 61.343H41.3656C41.3656 60.6376 40.8294 60.2426 40.2369 60.2426C39.5879 60.2426 39.08 60.6941 38.9389 61.343Z" fill="#49494C"/>
<path d="M50.7054 61.7099C50.7054 62.8385 49.9154 63.7133 48.8149 63.7133C48.2224 63.7133 47.658 63.4593 47.3759 63.0361V63.6286H46.8115V57.7313H47.4041V60.3555C47.7145 59.9604 48.2224 59.7065 48.8149 59.7065C49.9154 59.7065 50.7054 60.5812 50.7054 61.7099ZM50.0847 61.6817C50.0847 60.8634 49.4921 60.2426 48.7303 60.2426C48.0531 60.2426 47.4041 60.6941 47.4041 61.6817C47.4041 62.6975 48.0813 63.1207 48.7303 63.1207C49.5203 63.1489 50.0847 62.5282 50.0847 61.6817Z" fill="#49494C"/>
<path d="M55.8131 59.7911L53.9225 64.1365C53.6122 64.8137 53.2171 65.0958 52.6246 65.0958C52.4271 65.0958 52.2295 65.0676 52.032 65.0112V64.5033C52.2013 64.5315 52.3706 64.5315 52.4835 64.5315C52.8503 64.5315 53.1325 64.4186 53.3582 63.9107L53.5557 63.4593L51.9756 59.7629H52.6246L53.8943 62.8103L55.1641 59.7629H55.8131V59.7911Z" fill="#49494C"/>
<path d="M63.262 62.5564H60.7225L60.2711 63.6004H59.6221L61.8512 58.3521H62.0769L64.306 63.6004H63.6571L63.262 62.5564ZM61.9923 59.4525L60.9483 61.992H63.0081L61.9923 59.4525Z" fill="#49494C"/>
<path d="M65.6318 61.6816C65.6318 60.5812 66.5065 59.6783 67.6352 59.6783C68.3124 59.6783 68.8767 60.0169 69.2153 60.4965L68.7921 60.8351C68.5099 60.4683 68.1431 60.2144 67.6634 60.2144C66.8734 60.2144 66.2808 60.8351 66.2808 61.6534C66.2808 62.4717 66.8734 63.0925 67.6634 63.0925C68.1431 63.0925 68.5099 62.8667 68.7921 62.4717L69.2153 62.8103C68.8767 63.3182 68.3406 63.6286 67.6352 63.6286C66.5065 63.685 65.6318 62.8103 65.6318 61.6816Z" fill="#49494C"/>
<path d="M70.6543 61.6816C70.6543 60.553 71.529 59.6783 72.6577 59.6783C73.7581 59.6783 74.6611 60.553 74.6611 61.6816C74.6611 62.7821 73.7863 63.685 72.6577 63.685C71.529 63.685 70.6543 62.8103 70.6543 61.6816ZM74.0403 61.7099C74.0403 60.8916 73.4477 60.2708 72.6577 60.2708C71.8676 60.2708 71.2751 60.8916 71.2751 61.7099C71.2751 62.5281 71.8676 63.1489 72.6577 63.1489C73.4477 63.1489 74.0403 62.4999 74.0403 61.7099Z" fill="#49494C"/>
<path d="M80.1351 57.7313V63.6004H79.5708V63.0078C79.2604 63.4311 78.7243 63.685 78.1317 63.685C77.0313 63.685 76.2412 62.8103 76.2412 61.6817C76.2412 60.553 77.0313 59.6783 78.1317 59.6783C78.6961 59.6783 79.2322 59.9322 79.5426 60.3273V57.7313H80.1351ZM79.5426 61.7099C79.5426 60.6941 78.8654 60.2708 78.2164 60.2708C77.4545 60.2708 76.862 60.8634 76.862 61.7099C76.862 62.5282 77.4263 63.1489 78.2164 63.1489C78.8654 63.1489 79.5426 62.6975 79.5426 61.7099Z" fill="#49494C"/>
<path d="M85.6096 61.8792H82.5904C82.675 62.641 83.2394 63.1207 84.0012 63.1207C84.4809 63.1207 84.8477 62.9232 85.1581 62.6128L85.4967 63.0078C85.1017 63.4029 84.5938 63.685 83.973 63.685C82.8161 63.685 81.9414 62.8103 81.9414 61.6816C81.9414 60.5812 82.7879 59.6783 83.8884 59.6783C84.8759 59.6783 85.6378 60.3837 85.6378 61.3995C85.6378 61.6252 85.6096 61.7945 85.6096 61.8792ZM82.6186 61.343H85.0452C85.0452 60.6376 84.5091 60.2426 83.9166 60.2426C83.2394 60.2426 82.7315 60.6941 82.6186 61.343Z" fill="#49494C"/>
<path d="M90.1799 63.0643V63.6004H87.0479V63.4311L89.2205 60.3273H87.2172V59.7911H90.1517V59.9604L87.979 63.0643H90.1799Z" fill="#49494C"/>
</svg>
